<mxfile host="app.diagrams.net" modified="2024-01-27T17:41:09.159Z" agent="Mozilla/5.0 (Windows NT 10.0; Win64; x64; rv:122.0) Gecko/20100101 Firefox/122.0" etag="KwkoybD4o6fLjazehVQq" version="22.1.21" type="device">
  <diagram name="Page-1" id="j0yjVIQy04XI7YTC3z-k">
    <mxGraphModel dx="2074" dy="1765" grid="1" gridSize="10" guides="1" tooltips="1" connect="1" arrows="1" fold="1" page="1" pageScale="1" pageWidth="288" pageHeight="613" math="0" shadow="0">
      <root>
        <mxCell id="0" />
        <mxCell id="1" parent="0" />
        <mxCell id="ljbNDEaFLBN_aUnEY3M4-20" value="" style="rounded=0;whiteSpace=wrap;html=1;" vertex="1" parent="1">
          <mxGeometry x="288" width="288" height="613" as="geometry" />
        </mxCell>
        <mxCell id="ljbNDEaFLBN_aUnEY3M4-19" value="" style="rounded=0;whiteSpace=wrap;html=1;" vertex="1" parent="1">
          <mxGeometry width="288" height="613" as="geometry" />
        </mxCell>
        <mxCell id="JWv2VIk5yocteebeuqQv-1" value="" style="rounded=0;whiteSpace=wrap;html=1;" parent="1" vertex="1">
          <mxGeometry x="40" y="250" width="210" height="90" as="geometry" />
        </mxCell>
        <mxCell id="JWv2VIk5yocteebeuqQv-2" value="Ask" style="rounded=1;whiteSpace=wrap;html=1;" parent="1" vertex="1">
          <mxGeometry x="85" y="390" width="120" height="30" as="geometry" />
        </mxCell>
        <mxCell id="JWv2VIk5yocteebeuqQv-3" value="&lt;font style=&quot;font-size: 24px;&quot;&gt;Magic Eight Ball&lt;br&gt;&lt;/font&gt;" style="text;html=1;strokeColor=none;fillColor=none;align=center;verticalAlign=middle;whiteSpace=wrap;rounded=0;" parent="1" vertex="1">
          <mxGeometry x="30" y="20" width="230" height="70" as="geometry" />
        </mxCell>
        <mxCell id="JWv2VIk5yocteebeuqQv-4" value="&lt;div&gt;Title&lt;/div&gt;" style="text;html=1;strokeColor=none;fillColor=none;align=center;verticalAlign=middle;whiteSpace=wrap;rounded=0;fontColor=#9d9d9d;" parent="1" vertex="1">
          <mxGeometry x="115" y="20" width="60" height="30" as="geometry" />
        </mxCell>
        <mxCell id="JWv2VIk5yocteebeuqQv-5" value="Submit Button" style="text;html=1;strokeColor=none;fillColor=none;align=center;verticalAlign=middle;whiteSpace=wrap;rounded=0;fontColor=#9d9d9d;" parent="1" vertex="1">
          <mxGeometry x="95" y="370" width="110" height="30" as="geometry" />
        </mxCell>
        <mxCell id="ljbNDEaFLBN_aUnEY3M4-2" value="Main Screen" style="text;html=1;align=center;verticalAlign=middle;resizable=0;points=[];autosize=1;strokeColor=none;fillColor=none;fontColor=#9d9d9d;" vertex="1" parent="1">
          <mxGeometry x="100" y="-30" width="90" height="30" as="geometry" />
        </mxCell>
        <mxCell id="ljbNDEaFLBN_aUnEY3M4-3" value="&lt;div&gt;Modal Screen&lt;/div&gt;" style="text;html=1;align=center;verticalAlign=middle;resizable=0;points=[];autosize=1;strokeColor=none;fillColor=none;fontColor=#9d9d9d;" vertex="1" parent="1">
          <mxGeometry x="382" y="-30" width="100" height="30" as="geometry" />
        </mxCell>
        <mxCell id="ljbNDEaFLBN_aUnEY3M4-4" value="Prompt" style="text;html=1;strokeColor=none;fillColor=none;align=center;verticalAlign=middle;whiteSpace=wrap;rounded=0;fontColor=#9d9d9d;" vertex="1" parent="1">
          <mxGeometry x="114" y="180" width="60" height="30" as="geometry" />
        </mxCell>
        <mxCell id="ljbNDEaFLBN_aUnEY3M4-5" value="&lt;font style=&quot;font-size: 18px;&quot;&gt;Ask the Magic Eight Ball any question:&lt;/font&gt;" style="text;html=1;strokeColor=none;fillColor=none;align=center;verticalAlign=middle;whiteSpace=wrap;rounded=0;" vertex="1" parent="1">
          <mxGeometry x="9" y="190" width="270" height="70" as="geometry" />
        </mxCell>
        <mxCell id="ljbNDEaFLBN_aUnEY3M4-8" value="&lt;font style=&quot;font-size: 14px;&quot;&gt;You Asked:&lt;/font&gt;" style="text;html=1;strokeColor=none;fillColor=none;align=center;verticalAlign=middle;whiteSpace=wrap;rounded=0;" vertex="1" parent="1">
          <mxGeometry x="342" y="60" width="180" height="30" as="geometry" />
        </mxCell>
        <mxCell id="ljbNDEaFLBN_aUnEY3M4-9" value="" style="rounded=0;whiteSpace=wrap;html=1;" vertex="1" parent="1">
          <mxGeometry x="322" y="90" width="220" height="140" as="geometry" />
        </mxCell>
        <mxCell id="ljbNDEaFLBN_aUnEY3M4-10" value="&lt;div&gt;Submitted Question&lt;/div&gt;" style="text;html=1;strokeColor=none;fillColor=none;align=center;verticalAlign=middle;whiteSpace=wrap;rounded=0;fontColor=#9d9d9d;" vertex="1" parent="1">
          <mxGeometry x="337" y="130" width="190" height="50" as="geometry" />
        </mxCell>
        <mxCell id="ljbNDEaFLBN_aUnEY3M4-11" value="&lt;div&gt;Label&lt;/div&gt;" style="text;html=1;strokeColor=none;fillColor=none;align=center;verticalAlign=middle;whiteSpace=wrap;rounded=0;fontColor=#9d9d9d;" vertex="1" parent="1">
          <mxGeometry x="402" y="40" width="60" height="30" as="geometry" />
        </mxCell>
        <mxCell id="ljbNDEaFLBN_aUnEY3M4-12" value="&lt;font style=&quot;font-size: 14px;&quot;&gt;The Magic Eight Ball Said:&lt;/font&gt;" style="text;html=1;strokeColor=none;fillColor=none;align=center;verticalAlign=middle;whiteSpace=wrap;rounded=0;" vertex="1" parent="1">
          <mxGeometry x="342" y="307" width="180" height="30" as="geometry" />
        </mxCell>
        <mxCell id="ljbNDEaFLBN_aUnEY3M4-14" value="" style="rounded=0;whiteSpace=wrap;html=1;" vertex="1" parent="1">
          <mxGeometry x="322" y="350" width="220" height="140" as="geometry" />
        </mxCell>
        <mxCell id="ljbNDEaFLBN_aUnEY3M4-16" value="Ball Response" style="text;html=1;strokeColor=none;fillColor=none;align=center;verticalAlign=middle;whiteSpace=wrap;rounded=0;fontColor=#9d9d9d;" vertex="1" parent="1">
          <mxGeometry x="337" y="395" width="190" height="50" as="geometry" />
        </mxCell>
        <mxCell id="ljbNDEaFLBN_aUnEY3M4-17" value="Back" style="rounded=1;whiteSpace=wrap;html=1;" vertex="1" parent="1">
          <mxGeometry x="372" y="530" width="120" height="30" as="geometry" />
        </mxCell>
        <mxCell id="ljbNDEaFLBN_aUnEY3M4-18" value="Back Button" style="text;html=1;strokeColor=none;fillColor=none;align=center;verticalAlign=middle;whiteSpace=wrap;rounded=0;fontColor=#9d9d9d;" vertex="1" parent="1">
          <mxGeometry x="388" y="510" width="88" height="30" as="geometry" />
        </mxCell>
        <mxCell id="ljbNDEaFLBN_aUnEY3M4-21" value="Text Box" style="text;html=1;strokeColor=none;fillColor=none;align=center;verticalAlign=middle;whiteSpace=wrap;rounded=0;fontColor=#9d9d9d;" vertex="1" parent="1">
          <mxGeometry x="49" y="270" width="190" height="50" as="geometry" />
        </mxCell>
        <mxCell id="ljbNDEaFLBN_aUnEY3M4-22" value="&lt;div&gt;Label&lt;/div&gt;" style="text;html=1;strokeColor=none;fillColor=none;align=center;verticalAlign=middle;whiteSpace=wrap;rounded=0;fontColor=#9d9d9d;" vertex="1" parent="1">
          <mxGeometry x="402" y="292" width="60" height="30" as="geometry" />
        </mxCell>
      </root>
    </mxGraphModel>
  </diagram>
</mxfile>
